<?xml version="1.0" encoding="utf-8"?>
<!-- Generator: Adobe Illustrator 25.1.0, SVG Export Plug-In . SVG Version: 6.00 Build 0)  -->
<svg version="1.1" id="Layer_1" xmlns="http://www.w3.org/2000/svg" xmlns:xlink="http://www.w3.org/1999/xlink" x="0px" y="0px"
	 viewBox="0 0 512 512" style="enable-background:new 0 0 512 512;" xml:space="preserve">
<style type="text/css">
	.st0{fill:#01ED70;}
</style>
<g>
	<path class="st0" d="M174,229.4c-5.7-6.3-15.7-6.8-21.9-1c-6.3,5.7-6.8,15.7-1,21.9l78.9,85.7c3.1,3.1,6.8,5.2,11,5.2
		c0,0,0,0,0.5,0c4.2,0,8.4-1.6,11-4.7l199.6-199.1c6.3-6.3,6.3-16.2,0-21.9s-16.2-6.3-21.9,0L241.9,303L174,229.4z"/>
	<path class="st0" d="M448.3,250.8c-8.9,0-15.7,6.8-15.7,15.7c0,97.2-79.4,176.6-176.6,176.6S79.4,363.6,79.4,266.4
		S158.8,89.9,256,89.9c8.9,0,15.7-6.8,15.7-15.7s-6.8-15.7-15.7-15.7C141.6,58.5,48.1,152,48.1,266.4S141.6,474.4,256,474.4
		s207.9-93.5,207.9-207.9C463.9,257.6,457.1,250.8,448.3,250.8z"/>
</g>
</svg>
